<svg width="48" height="48" viewBox="0 0 48 48" fill="none" xmlns="http://www.w3.org/2000/svg">
<path fill-rule="evenodd" clip-rule="evenodd" d="M14.526 6.52C14.6444 5.41602 15.1668 4.39481 15.9927 3.65272C16.8186 2.91064 17.8897 2.50008 19 2.5H29C30.1103 2.50008 31.1814 2.91064 32.0073 3.65272C32.8332 4.39481 33.3556 5.41602 33.474 6.52C35.002 6.552 36.32 6.63 37.448 6.838C38.964 7.118 40.254 7.646 41.304 8.698C42.508 9.9 43.024 11.418 43.268 13.218C43.5 14.95 43.5 17.156 43.5 19.89V32.11C43.5 34.844 43.5 37.05 43.268 38.784C43.024 40.584 42.508 42.1 41.304 43.304C40.1 44.508 38.584 45.024 36.784 45.268C35.05 45.5 32.844 45.5 30.11 45.5H17.89C15.156 45.5 12.95 45.5 11.216 45.268C9.416 45.024 7.9 44.508 6.696 43.304C5.492 42.1 4.976 40.584 4.734 38.784C4.5 37.05 4.5 34.844 4.5 32.11V19.89C4.5 17.156 4.5 14.95 4.734 13.216C4.974 11.416 5.494 9.9 6.696 8.696C7.746 7.646 9.036 7.116 10.552 6.838C11.68 6.63 13 6.552 14.526 6.52ZM14.53 9.52C13.094 9.552 11.986 9.624 11.094 9.788C9.962 9.996 9.304 10.332 8.818 10.818C8.264 11.372 7.904 12.148 7.706 13.618C7.504 15.126 7.5 17.13 7.5 20V32C7.5 34.87 7.504 36.872 7.706 38.384C7.904 39.852 8.266 40.628 8.818 41.182C9.372 41.736 10.148 42.096 11.618 42.294C13.126 42.496 15.13 42.5 18 42.5H30C32.87 42.5 34.872 42.496 36.384 42.294C37.852 42.096 38.628 41.734 39.182 41.182C39.736 40.628 40.096 39.852 40.294 38.382C40.496 36.872 40.5 34.87 40.5 32V20C40.5 17.13 40.496 15.126 40.294 13.616C40.096 12.148 39.734 11.372 39.182 10.818C38.694 10.332 38.038 9.998 36.906 9.788C36.014 9.624 34.906 9.552 33.47 9.522C33.342 10.6177 32.8161 11.6282 31.992 12.3616C31.1679 13.095 30.1031 13.5001 29 13.5H19C17.8965 13.5 16.8315 13.0946 16.0074 12.3609C15.1833 11.6271 14.6575 10.6161 14.53 9.52ZM19 5.5C18.6022 5.5 18.2206 5.65804 17.9393 5.93934C17.658 6.22064 17.5 6.60218 17.5 7V9C17.5 9.828 18.172 10.5 19 10.5H29C29.3978 10.5 29.7794 10.342 30.0607 10.0607C30.342 9.77936 30.5 9.39782 30.5 9V7C30.5 6.60218 30.342 6.22064 30.0607 5.93934C29.7794 5.65804 29.3978 5.5 29 5.5H19ZM12.5 21C12.5 20.6022 12.658 20.2206 12.9393 19.9393C13.2206 19.658 13.6022 19.5 14 19.5H34C34.3978 19.5 34.7794 19.658 35.0607 19.9393C35.342 20.2206 35.5 20.6022 35.5 21C35.5 21.3978 35.342 21.7794 35.0607 22.0607C34.7794 22.342 34.3978 22.5 34 22.5H14C13.6022 22.5 13.2206 22.342 12.9393 22.0607C12.658 21.7794 12.5 21.3978 12.5 21ZM14.5 28C14.5 27.6022 14.658 27.2206 14.9393 26.9393C15.2206 26.658 15.6022 26.5 16 26.5H32C32.3978 26.5 32.7794 26.658 33.0607 26.9393C33.342 27.2206 33.5 27.6022 33.5 28C33.5 28.3978 33.342 28.7794 33.0607 29.0607C32.7794 29.342 32.3978 29.5 32 29.5H16C15.6022 29.5 15.2206 29.342 14.9393 29.0607C14.658 28.7794 14.5 28.3978 14.5 28ZM16.5 35C16.5 34.6022 16.658 34.2206 16.9393 33.9393C17.2206 33.658 17.6022 33.5 18 33.5H30C30.3978 33.5 30.7794 33.658 31.0607 33.9393C31.342 34.2206 31.5 34.6022 31.5 35C31.5 35.3978 31.342 35.7794 31.0607 36.0607C30.7794 36.342 30.3978 36.5 30 36.5H18C17.6022 36.5 17.2206 36.342 16.9393 36.0607C16.658 35.7794 16.5 35.3978 16.5 35Z" fill="#8EB69B"/>
</svg>
