<svg width="48" height="48" viewBox="0 0 48 48" fill="none" xmlns="http://www.w3.org/2000/svg">
<path d="M18 38V26C18 25.4696 17.7893 24.9609 17.4142 24.5858C17.0391 24.2107 16.5304 24 16 24H8C7.46957 24 6.96086 24.2107 6.58579 24.5858C6.21071 24.9609 6 25.4696 6 26V38C6 38.5304 6.21071 39.0391 6.58579 39.4142C6.96086 39.7893 7.46957 40 8 40M18 38C18 38.5304 17.7893 39.0391 17.4142 39.4142C17.0391 39.7893 16.5304 40 16 40H8M18 38C18 38.5304 18.2107 39.0391 18.5858 39.4142C18.9609 39.7893 19.4696 40 20 40H28C28.5304 40 29.0391 39.7893 29.4142 39.4142C29.7893 39.0391 30 38.5304 30 38M18 38V10C18 9.46957 18.2107 8.96086 18.5858 8.58579C18.9609 8.21071 19.4696 8 20 8H28C28.5304 8 29.0391 8.21071 29.4142 8.58579C29.7893 8.96086 30 9.46957 30 10V38M8 40H36M30 38C30 38.5304 30.2107 39.0391 30.5858 39.4142C30.9609 39.7893 31.4696 40 32 40H40C40.5304 40 41.0391 39.7893 41.4142 39.4142C41.7893 39.0391 42 38.5304 42 38V18C42 17.4696 41.7893 16.9609 41.4142 16.5858C41.0391 16.2107 40.5304 16 40 16H32C31.4696 16 30.9609 16.2107 30.5858 16.5858C30.2107 16.9609 30 17.4696 30 18V38Z" stroke="#8EB69B" stroke-width="4" stroke-linecap="round" stroke-linejoin="round"/>
</svg>
